<?xml version="1.0" encoding="UTF-8" standalone="no"?> <!-- Created with Vectornator Pro for iOS (http://vectornator.io/) --><!DOCTYPE svg PUBLIC "-//W3C//DTD SVG 1.1//EN" "http://www.w3.org/Graphics/SVG/1.1/DTD/svg11.dtd">
<svg style="fill-rule:evenodd;clip-rule:evenodd;stroke-linecap:round;stroke-linejoin:round;" xmlns:vectornator="http://vectornator.io" xmlns:xlink="http://www.w3.org/1999/xlink" xmlns="http://www.w3.org/2000/svg" xml:space="preserve" version="1.1" viewBox="0 0 288 288">
<metadata>
<vectornator:setting key="DisplayWhiteBackground" value="0"/>
<vectornator:setting key="RulersVisible" value="1"/>
<vectornator:setting key="GridSpacing" value="36"/>
<vectornator:setting key="Units" value="Inches"/>
<vectornator:setting key="DynamicGuides" value="0"/>
<vectornator:setting key="SnapToPoints" value="0"/>
<vectornator:setting key="SnapToGrid" value="0"/>
<vectornator:setting key="ShowGrid" value="1"/>
<vectornator:setting key="SnapToEdges" value="0"/>
</metadata>
<defs/>
<g id="Layer 1" vectornator:layerName="Layer 1">
<path stroke="#323631" stroke-width="2.71" d="M16.6336+36.2867L271.816+36.2867C277.1+36.2867+281.384+39.9714+281.384+44.5169L281.384+245.665C281.384+250.211+277.1+253.896+271.816+253.896L16.6336+253.896C11.3497+253.896+7.06633+250.211+7.06633+245.665L7.06633+44.5169C7.06633+39.9714+11.3497+36.2867+16.6336+36.2867Z" fill="none" stroke-linecap="round" opacity="1" stroke-linejoin="round"/>
<path stroke="#323631" stroke-width="2.71" d="M16.6336+36.2867L271.816+36.2867C277.1+36.2867+281.384+39.9714+281.384+44.5169L281.384+245.665C281.384+250.211+277.1+253.896+271.816+253.896L16.6336+253.896C11.3497+253.896+7.06633+250.211+7.06633+245.665L7.06633+44.5169C7.06633+39.9714+11.3497+36.2867+16.6336+36.2867Z" fill="none" stroke-linecap="round" opacity="1" stroke-linejoin="round"/>
<path stroke="#78a371" stroke-width="3.63" d="M40.2284+156.425L246.49+156.425C249.251+156.425+251.49+158.663+251.49+161.425L251.49+162.875C251.49+165.637+249.251+167.875+246.49+167.875L40.2284+167.875C37.4669+167.875+35.2284+165.637+35.2284+162.875L35.2284+161.425C35.2284+158.663+37.4669+156.425+40.2284+156.425Z" fill="none" stroke-linecap="round" opacity="1" stroke-linejoin="round"/>
<path stroke="#78a371" stroke-width="3.63" d="M40.2284+156.425L246.49+156.425C249.251+156.425+251.49+158.663+251.49+161.425L251.49+162.875C251.49+165.637+249.251+167.875+246.49+167.875L40.2284+167.875C37.4669+167.875+35.2284+165.637+35.2284+162.875L35.2284+161.425C35.2284+158.663+37.4669+156.425+40.2284+156.425Z" fill="none" stroke-linecap="round" opacity="1" stroke-linejoin="round"/>
<path stroke="#78a371" stroke-width="3.63" d="M40.2284+156.425L246.49+156.425C249.251+156.425+251.49+158.663+251.49+161.425L251.49+162.875C251.49+165.637+249.251+167.875+246.49+167.875L40.2284+167.875C37.4669+167.875+35.2284+165.637+35.2284+162.875L35.2284+161.425C35.2284+158.663+37.4669+156.425+40.2284+156.425Z" fill="none" stroke-linecap="round" opacity="1" stroke-linejoin="round"/>
<path stroke="#78a371" stroke-width="3.63" d="M40.2284+156.425L246.49+156.425C249.251+156.425+251.49+158.663+251.49+161.425L251.49+162.875C251.49+165.637+249.251+167.875+246.49+167.875L40.2284+167.875C37.4669+167.875+35.2284+165.637+35.2284+162.875L35.2284+161.425C35.2284+158.663+37.4669+156.425+40.2284+156.425Z" fill="none" stroke-linecap="round" opacity="1" stroke-linejoin="round"/>
<path stroke="#78a371" stroke-width="3.63" d="M40.2284+156.425L246.49+156.425C249.251+156.425+251.49+158.663+251.49+161.425L251.49+162.875C251.49+165.637+249.251+167.875+246.49+167.875L40.2284+167.875C37.4669+167.875+35.2284+165.637+35.2284+162.875L35.2284+161.425C35.2284+158.663+37.4669+156.425+40.2284+156.425Z" fill="none" stroke-linecap="round" opacity="1" stroke-linejoin="round"/>
<path stroke="#78a371" stroke-width="3.63" d="M40.2284+156.425L246.49+156.425C249.251+156.425+251.49+158.663+251.49+161.425L251.49+162.875C251.49+165.637+249.251+167.875+246.49+167.875L40.2284+167.875C37.4669+167.875+35.2284+165.637+35.2284+162.875L35.2284+161.425C35.2284+158.663+37.4669+156.425+40.2284+156.425Z" fill="none" stroke-linecap="round" opacity="1" stroke-linejoin="round"/>
<path stroke="#78a371" stroke-width="3.63" d="M40.2284+156.425L246.49+156.425C249.251+156.425+251.49+158.663+251.49+161.425L251.49+162.875C251.49+165.637+249.251+167.875+246.49+167.875L40.2284+167.875C37.4669+167.875+35.2284+165.637+35.2284+162.875L35.2284+161.425C35.2284+158.663+37.4669+156.425+40.2284+156.425Z" fill="none" stroke-linecap="round" opacity="1" stroke-linejoin="round"/>
<path stroke="#78a371" stroke-width="3.63" d="M40.2284+156.425L246.49+156.425C249.251+156.425+251.49+158.663+251.49+161.425L251.49+162.875C251.49+165.637+249.251+167.875+246.49+167.875L40.2284+167.875C37.4669+167.875+35.2284+165.637+35.2284+162.875L35.2284+161.425C35.2284+158.663+37.4669+156.425+40.2284+156.425Z" fill="none" stroke-linecap="round" opacity="1" stroke-linejoin="round"/>
<path stroke="#78a371" stroke-width="3.63" d="M40.2284+156.425L246.49+156.425C249.251+156.425+251.49+158.663+251.49+161.425L251.49+162.875C251.49+165.637+249.251+167.875+246.49+167.875L40.2284+167.875C37.4669+167.875+35.2284+165.637+35.2284+162.875L35.2284+161.425C35.2284+158.663+37.4669+156.425+40.2284+156.425Z" fill="none" stroke-linecap="round" opacity="1" stroke-linejoin="round"/>
<path stroke="#78a371" stroke-width="3.63" d="M40.2284+156.425L246.49+156.425C249.251+156.425+251.49+158.663+251.49+161.425L251.49+162.875C251.49+165.637+249.251+167.875+246.49+167.875L40.2284+167.875C37.4669+167.875+35.2284+165.637+35.2284+162.875L35.2284+161.425C35.2284+158.663+37.4669+156.425+40.2284+156.425Z" fill="none" stroke-linecap="round" opacity="1" stroke-linejoin="round"/>
<path stroke="#78a371" stroke-width="3.63" d="M40.2284+156.425L246.49+156.425C249.251+156.425+251.49+158.663+251.49+161.425L251.49+162.875C251.49+165.637+249.251+167.875+246.49+167.875L40.2284+167.875C37.4669+167.875+35.2284+165.637+35.2284+162.875L35.2284+161.425C35.2284+158.663+37.4669+156.425+40.2284+156.425Z" fill="none" stroke-linecap="round" opacity="1" stroke-linejoin="round"/>
<path stroke="#78a371" stroke-width="3.63" d="M40.2284+156.425L246.49+156.425C249.251+156.425+251.49+158.663+251.49+161.425L251.49+162.875C251.49+165.637+249.251+167.875+246.49+167.875L40.2284+167.875C37.4669+167.875+35.2284+165.637+35.2284+162.875L35.2284+161.425C35.2284+158.663+37.4669+156.425+40.2284+156.425Z" fill="none" stroke-linecap="round" opacity="1" stroke-linejoin="round"/>
<path stroke="#78a371" stroke-width="3.63" d="M40.2284+156.425L246.49+156.425C249.251+156.425+251.49+158.663+251.49+161.425L251.49+162.875C251.49+165.637+249.251+167.875+246.49+167.875L40.2284+167.875C37.4669+167.875+35.2284+165.637+35.2284+162.875L35.2284+161.425C35.2284+158.663+37.4669+156.425+40.2284+156.425Z" fill="none" stroke-linecap="round" opacity="1" stroke-linejoin="round"/>
<path stroke="#78a371" stroke-width="3.63" d="M40.2284+156.425L246.49+156.425C249.251+156.425+251.49+158.663+251.49+161.425L251.49+162.875C251.49+165.637+249.251+167.875+246.49+167.875L40.2284+167.875C37.4669+167.875+35.2284+165.637+35.2284+162.875L35.2284+161.425C35.2284+158.663+37.4669+156.425+40.2284+156.425Z" fill="none" stroke-linecap="round" opacity="1" stroke-linejoin="round"/>
<path stroke="#78a371" stroke-width="3.63" d="M40.5096+155.019L246.771+155.019C249.532+155.019+251.771+157.257+251.771+160.019L251.771+161.469C251.771+164.23+249.532+166.469+246.771+166.469L40.5096+166.469C37.7482+166.469+35.5096+164.23+35.5096+161.469L35.5096+160.019C35.5096+157.257+37.7482+155.019+40.5096+155.019Z" fill="#78a371" stroke-linecap="round" opacity="1" stroke-linejoin="round"/>
<path stroke="#78a371" stroke-width="3.63" d="M40.5474+80.2722L246.809+80.2722C249.57+80.2722+251.809+82.5108+251.809+85.2722L251.809+86.7224C251.809+89.4838+249.57+91.7224+246.809+91.7224L40.5474+91.7224C37.786+91.7224+35.5474+89.4838+35.5474+86.7224L35.5474+85.2722C35.5474+82.5108+37.786+80.2722+40.5474+80.2722Z" fill="#78a371" stroke-linecap="round" opacity="1" stroke-linejoin="round"/>
<path stroke="#78a371" stroke-width="3.63" d="M39.5529+174.767L245.814+174.767C248.576+174.767+250.814+177.006+250.814+179.767L250.814+181.217C250.814+183.979+248.576+186.217+245.814+186.217L39.5529+186.217C36.7915+186.217+34.5529+183.979+34.5529+181.217L34.5529+179.767C34.5529+177.006+36.7915+174.767+39.5529+174.767Z" fill="none" stroke-linecap="round" opacity="1" stroke-linejoin="round"/>
<path stroke="#78a371" stroke-width="3.63" d="M40.8119+136.48L247.073+136.48C249.835+136.48+252.073+138.719+252.073+141.48L252.073+142.93C252.073+145.692+249.835+147.93+247.073+147.93L40.8119+147.93C38.0505+147.93+35.8119+145.692+35.8119+142.93L35.8119+141.48C35.8119+138.719+38.0505+136.48+40.8119+136.48Z" fill="none" stroke-linecap="round" opacity="1" stroke-linejoin="round"/>
<path stroke="#78a371" stroke-width="3.63" d="M41.1554+98.2334L247.417+98.2334C250.178+98.2334+252.417+100.472+252.417+103.233L252.417+104.684C252.417+107.445+250.178+109.684+247.417+109.684L41.1554+109.684C38.394+109.684+36.1554+107.445+36.1554+104.684L36.1554+103.233C36.1554+100.472+38.394+98.2334+41.1554+98.2334Z" fill="none" stroke-linecap="round" opacity="1" stroke-linejoin="round"/>
<path stroke="#78a371" stroke-width="3.63" d="M39.739+193.291L246+193.291C248.762+193.291+251+195.529+251+198.291L251+199.741C251+202.502+248.762+204.741+246+204.741L39.739+204.741C36.9776+204.741+34.739+202.502+34.739+199.741L34.739+198.291C34.739+195.529+36.9776+193.291+39.739+193.291Z" fill="none" stroke-linecap="round" opacity="1" stroke-linejoin="round"/>
<path stroke="#78a371" stroke-width="3.63" d="M41.6835+118.556L247.945+118.556C250.706+118.556+252.945+120.794+252.945+123.556L252.945+125.006C252.945+127.767+250.706+130.006+247.945+130.006L41.6835+130.006C38.922+130.006+36.6835+127.767+36.6835+125.006L36.6835+123.556C36.6835+120.794+38.922+118.556+41.6835+118.556Z" fill="none" stroke-linecap="round" opacity="1" stroke-linejoin="round"/>
<path stroke="#78a371" stroke-width="3.63" d="M39.7045+211.363L245.966+211.363C248.727+211.363+250.966+213.602+250.966+216.363L250.966+217.813C250.966+220.575+248.727+222.813+245.966+222.813L39.7045+222.813C36.9431+222.813+34.7045+220.575+34.7045+217.813L34.7045+216.363C34.7045+213.602+36.9431+211.363+39.7045+211.363Z" fill="#78a371" stroke-linecap="round" opacity="1" stroke-linejoin="round"/>
<path stroke="#78a371" stroke-width="3.63" d="M131.637+232.485L152.799+232.485C154.455+232.485+155.799+233.828+155.799+235.485L155.799+238.641C155.799+240.298+154.455+241.641+152.799+241.641L131.637+241.641C129.98+241.641+128.637+240.298+128.637+238.641L128.637+235.485C128.637+233.828+129.98+232.485+131.637+232.485Z" fill="#78a371" stroke-linecap="round" opacity="1" stroke-linejoin="round"/>
</g>
</svg>
