<?xml version="1.0" encoding="UTF-8" standalone="no"?> <!-- Created with Vectornator Pro for iOS (http://vectornator.io/) --><!DOCTYPE svg PUBLIC "-//W3C//DTD SVG 1.1//EN" "http://www.w3.org/Graphics/SVG/1.1/DTD/svg11.dtd">
<svg style="fill-rule:evenodd;clip-rule:evenodd;stroke-linecap:round;stroke-linejoin:round;" xmlns:vectornator="http://vectornator.io" xmlns:xlink="http://www.w3.org/1999/xlink" xmlns="http://www.w3.org/2000/svg" xml:space="preserve" version="1.1" viewBox="0 0 288 288">
<metadata>
<vectornator:setting key="DisplayWhiteBackground" value="0"/>
<vectornator:setting key="RulersVisible" value="1"/>
<vectornator:setting key="GridSpacing" value="36"/>
<vectornator:setting key="Units" value="Inches"/>
<vectornator:setting key="DynamicGuides" value="0"/>
<vectornator:setting key="SnapToPoints" value="0"/>
<vectornator:setting key="SnapToGrid" value="0"/>
<vectornator:setting key="ShowGrid" value="1"/>
<vectornator:setting key="SnapToEdges" value="0"/>
</metadata>
<defs/>
<g id="Layer 2" vectornator:layerName="Layer 2">
<path d="M45.8961+122.309L42.3375+122.309L38.7789+122.309C37.8327+122.309+36.9761+122.675+36.356+123.267C35.736+123.859+35.3524+124.677+35.3524+125.58L35.3524+127.557L35.3524+129.534C35.3524+130.437+35.736+131.255+36.356+131.847C36.9761+132.439+37.8327+132.805+38.7789+132.805L42.3375+132.805L45.8961+132.805C46.8423+132.805+49.2683+132.796+49.2683+132.796C49.2683+132.796+49.3226+130.437+49.3226+129.534L49.3226+127.557L49.3226+125.58C49.3226+124.677+49.2835+122.354+49.2835+122.354C49.2835+122.354+46.8423+122.309+45.8961+122.309Z" opacity="1" fill="#78a371"/>
<path d="M45.8961+89.8421L42.3375+89.8421L38.7789+89.8421C37.8327+89.8421+36.9761+90.2083+36.356+90.8003C35.736+91.3923+35.3524+92.2101+35.3524+93.1134L35.3524+95.0901L35.3524+97.0668C35.3524+97.9701+35.736+98.788+36.356+99.3799C36.9761+99.9719+37.8327+100.338+38.7789+100.338L42.3375+100.338L45.8961+100.338C46.8423+100.338+49.2683+100.329+49.2683+100.329C49.2683+100.329+49.3226+97.9701+49.3226+97.0668L49.3226+95.0901L49.3226+93.1134C49.3226+92.2101+49.2835+89.8875+49.2835+89.8875C49.2835+89.8875+46.8423+89.8421+45.8961+89.8421Z" opacity="1" fill="#78a371"/>
<path d="M45.8961+89.8421L42.3375+89.8421L38.7789+89.8421C37.8327+89.8421+36.9761+90.7535+36.356+92.2269C35.736+93.7003+35.3524+95.7359+35.3524+97.9842L35.3524+102.904L35.3524+107.824C35.3524+110.072+35.736+112.108+36.356+113.581C36.9761+115.055+37.8327+115.966+38.7789+115.966L42.3375+115.966L45.8961+115.966C46.8423+115.966+49.2683+115.944+49.2683+115.944C49.2683+115.944+49.3226+110.072+49.3226+107.824L49.3226+102.904L49.3226+97.9842C49.3226+95.7359+49.2835+89.9551+49.2835+89.9551C49.2835+89.9551+46.8423+89.8421+45.8961+89.8421Z" opacity="1" fill="#78a371"/>
<path d="M45.8961+81.7656L42.3375+81.7656L38.7789+81.7656C37.8327+81.7656+36.9761+82.9587+36.356+84.8876C35.736+86.8166+35.3524+89.4814+35.3524+92.4249L35.3524+98.8659L35.3524+105.307C35.3524+108.25+35.736+110.915+36.356+112.844C36.9761+114.773+37.8327+115.966+38.7789+115.966L42.3375+115.966L45.8961+115.966C46.8423+115.966+49.2683+115.937+49.2683+115.937C49.2683+115.937+49.3226+108.25+49.3226+105.307L49.3226+98.8659L49.3226+92.4249C49.3226+89.4814+49.2835+81.9134+49.2835+81.9134C49.2835+81.9134+46.8423+81.7656+45.8961+81.7656Z" opacity="1" fill="#78a371"/>
<path d="M46.4557+139.021L42.8971+139.021L39.3385+139.021C38.3923+139.021+37.5357+139.388+36.9157+139.98C36.2956+140.572+35.9121+141.389+35.9121+142.293L35.9121+144.269L35.9121+146.246C35.9121+147.149+36.2956+147.967+36.9157+148.559C37.5357+149.151+38.3923+149.517+39.3385+149.517L42.8971+149.517L46.4557+149.517C47.4019+149.517+49.8279+149.509+49.8279+149.509C49.8279+149.509+49.8822+147.149+49.8822+146.246L49.8822+144.269L49.8822+142.293C49.8822+141.389+49.8431+139.067+49.8431+139.067C49.8431+139.067+47.4019+139.021+46.4557+139.021Z" opacity="1" fill="#78a371"/>
<path d="M46.0595+154.917L42.5009+154.917L38.9423+154.917C37.9961+154.917+37.1395+155.283+36.5194+155.875C35.8993+156.467+35.5158+157.285+35.5158+158.189L35.5158+160.165L35.5158+162.142C35.5158+163.045+35.8993+163.863+36.5194+164.455C37.1395+165.047+37.9961+165.413+38.9423+165.413L42.5009+165.413L46.0595+165.413C47.0057+165.413+49.4317+165.404+49.4317+165.404C49.4317+165.404+49.486+163.045+49.486+162.142L49.486+160.165L49.486+158.189C49.486+157.285+49.4469+154.963+49.4469+154.963C49.4469+154.963+47.0057+154.917+46.0595+154.917Z" opacity="1" fill="#78a371"/>
<path d="M241.101+65.4556L244.66+65.4556L248.218+65.4556C249.165+65.4556+250.021+65.8217+250.641+66.4137C251.261+67.0057+251.645+67.8235+251.645+68.7269L251.645+70.7035L251.645+72.6802C251.645+73.5836+251.261+74.4014+250.641+74.9934C250.021+75.5854+249.165+75.9515+248.218+75.9515L244.66+75.9515L241.101+75.9515C240.155+75.9515+237.729+75.9427+237.729+75.9427C237.729+75.9427+237.675+73.5836+237.675+72.6802L237.675+70.7035L237.675+68.7269C237.675+67.8235+237.714+65.5009+237.714+65.5009C237.714+65.5009+240.155+65.4556+241.101+65.4556Z" opacity="1" fill="#78a371"/>
<path d="M240.639+184.966L244.197+184.966L247.756+184.966C248.702+184.966+249.559+185.333+250.179+185.925C250.799+186.517+251.182+187.334+251.182+188.238L251.182+190.214L251.182+192.191C251.182+193.094+250.799+193.912+250.179+194.504C249.559+195.096+248.702+195.462+247.756+195.462L244.197+195.462L240.639+195.462C239.692+195.462+237.266+195.454+237.266+195.454C237.266+195.454+237.212+193.094+237.212+192.191L237.212+190.214L237.212+188.238C237.212+187.334+237.251+185.012+237.251+185.012C237.251+185.012+239.692+184.966+240.639+184.966Z" opacity="1" fill="#78a371"/>
<path d="M240.87+200.469L244.428+200.469L247.987+200.469C248.933+200.469+249.79+200.835+250.41+201.427C251.03+202.019+251.414+202.837+251.414+203.741L251.414+205.717L251.414+207.694C251.414+208.597+251.03+209.415+250.41+210.007C249.79+210.599+248.933+210.965+247.987+210.965L244.428+210.965L240.87+210.965C239.924+210.965+237.498+210.956+237.498+210.956C237.498+210.956+237.443+208.597+237.443+207.694L237.443+205.717L237.443+203.741C237.443+202.837+237.482+200.515+237.482+200.515C237.482+200.515+239.924+200.469+240.87+200.469Z" opacity="1" fill="#78a371"/>
<path d="M240.986+215.972L244.544+215.972L248.103+215.972C249.049+215.972+249.906+216.338+250.526+216.93C251.146+217.522+251.529+218.34+251.529+219.243L251.529+221.22L251.529+223.197C251.529+224.1+251.146+224.918+250.526+225.51C249.906+226.102+249.049+226.468+248.103+226.468L244.544+226.468L240.986+226.468C240.039+226.468+237.613+226.459+237.613+226.459C237.613+226.459+237.559+224.1+237.559+223.197L237.559+221.22L237.559+219.243C237.559+218.34+237.598+216.018+237.598+216.018C237.598+216.018+240.039+215.972+240.986+215.972Z" opacity="1" fill="#78a371"/>
<path d="M234.823+138.574L240.735+138.574L246.647+138.574C248.219+138.574+249.642+138.958+250.672+139.579C251.702+140.201+252.339+141.059+252.339+142.007L252.339+144.082L252.339+146.157C252.339+147.106+251.702+147.964+250.672+148.585C249.642+149.207+248.219+149.591+246.647+149.591L240.735+149.591L234.823+149.591C233.251+149.591+229.221+149.582+229.221+149.582C229.221+149.582+229.13+147.106+229.13+146.157L229.13+144.082L229.13+142.007C229.13+141.059+229.195+138.621+229.195+138.621C229.195+138.621+233.251+138.574+234.823+138.574Z" opacity="1" fill="#78a371"/>
<path d="M226.402+153.729L235.156+153.729L243.91+153.729C246.238+153.729+248.345+154.159+249.87+154.854C251.396+155.549+252.339+156.509+252.339+157.569L252.339+159.889L252.339+162.209C252.339+163.269+251.396+164.229+249.87+164.924C248.345+165.619+246.238+166.048+243.91+166.048L235.156+166.048L226.402+166.048C224.075+166.048+218.107+166.038+218.107+166.038C218.107+166.038+217.973+163.269+217.973+162.209L217.973+159.889L217.973+157.569C217.973+156.509+218.069+153.783+218.069+153.783C218.069+153.783+224.075+153.729+226.402+153.729Z" opacity="1" fill="#78a371"/>
<path d="M54.2129+184.07L47.7483+184.07L41.2837+184.07C39.5648+184.07+38.0086+184.484+36.8822+185.153C35.7558+185.821+35.0591+186.745+35.0591+187.766L35.0591+189.999L35.0591+192.232C35.0591+193.253+35.7558+194.177+36.8822+194.846C38.0086+195.514+39.5648+195.928+41.2837+195.928L47.7483+195.928L54.2129+195.928C55.9318+195.928+60.3389+195.918+60.3389+195.918C60.3389+195.918+60.4375+193.253+60.4375+192.232L60.4375+189.999L60.4375+187.766C60.4375+186.745+60.3665+184.121+60.3665+184.121C60.3665+184.121+55.9318+184.07+54.2129+184.07Z" opacity="1" fill="#78a371"/>
<path d="M54.2129+199.959L47.7483+199.959L41.2837+199.959C39.5648+199.959+38.0086+200.373+36.8822+201.042C35.7558+201.71+35.0591+202.634+35.0591+203.655L35.0591+205.888L35.0591+208.121C35.0591+209.142+35.7558+210.066+36.8822+210.735C38.0086+211.404+39.5648+211.817+41.2837+211.817L47.7483+211.817L54.2129+211.817C55.9318+211.817+60.3389+211.807+60.3389+211.807C60.3389+211.807+60.4375+209.142+60.4375+208.121L60.4375+205.888L60.4375+203.655C60.4375+202.634+60.3665+200.01+60.3665+200.01C60.3665+200.01+55.9318+199.959+54.2129+199.959Z" opacity="1" fill="#78a371"/>
<path d="M54.5841+215.403L48.1195+215.403L41.6549+215.403C39.936+215.403+38.3799+215.816+37.2535+216.485C36.127+217.154+35.4303+218.078+35.4303+219.099L35.4303+221.332L35.4303+223.565C35.4303+224.586+36.127+225.51+37.2535+226.178C38.3799+226.847+39.936+227.261+41.6549+227.261L48.1195+227.261L54.5841+227.261C56.303+227.261+60.7101+227.251+60.7101+227.251C60.7101+227.251+60.8088+224.586+60.8088+223.565L60.8088+221.332L60.8088+219.099C60.8088+218.078+60.7378+215.454+60.7378+215.454C60.7378+215.454+56.303+215.403+54.5841+215.403Z" opacity="1" fill="#78a371"/>
<path d="M46.2129+65.4321L42.6543+65.4321L39.0957+65.4321C38.1495+65.4321+37.2929+65.7982+36.6728+66.3902C36.0527+66.9822+35.6692+67.8+35.6692+68.7034L35.6692+70.68L35.6692+72.6567C35.6692+73.5601+36.0527+74.3779+36.6728+74.9699C37.2929+75.5619+38.1495+75.928+39.0957+75.928L42.6543+75.928L46.2129+75.928C47.1591+75.928+49.5851+75.9192+49.5851+75.9192C49.5851+75.9192+49.6393+73.5601+49.6393+72.6567L49.6393+70.68L49.6393+68.7034C49.6393+67.8+49.6003+65.4774+49.6003+65.4774C49.6003+65.4774+47.1591+65.4321+46.2129+65.4321Z" opacity="1" fill="#78a371"/>
<path d="M145.562+64.0002L157.382+64.0002L157.382+75.5066L145.562+75.5066L145.562+64.0002Z" opacity="1" fill="#78a371"/>
<path d="M146.256+184.843L158.076+184.843L158.076+196.35L146.256+196.35L146.256+184.843Z" opacity="1" fill="#78a371"/>
<path d="M146.534+200.382L158.353+200.382L158.353+211.889L146.534+211.889L146.534+200.382Z" opacity="1" fill="#78a371"/>
<path d="M147.088+215.51L158.908+215.51L158.908+227.017L147.088+227.017L147.088+215.51Z" opacity="1" fill="#78a371"/>
<path d="M142.554+231.488L166.209+231.488C170.424+231.488+173.84+233.727+173.84+236.488L173.84+237.232C173.84+239.993+170.424+242.232+166.209+242.232L142.554+242.232C138.34+242.232+134.923+239.993+134.923+237.232L134.923+236.488C134.923+233.727+138.34+231.488+142.554+231.488Z" opacity="1" fill="#78a371"/>
</g>
<g id="Layer 1" vectornator:layerName="Layer 1">
<path stroke="#323631" stroke-width="2.71" d="M16.6336+36.2867L271.816+36.2867C277.1+36.2867+281.384+39.9714+281.384+44.5169L281.384+245.665C281.384+250.211+277.1+253.896+271.816+253.896L16.6336+253.896C11.3497+253.896+7.06633+250.211+7.06633+245.665L7.06633+44.5169C7.06633+39.9714+11.3497+36.2867+16.6336+36.2867Z" fill="none" stroke-linecap="round" opacity="1" stroke-linejoin="round"/>
<path stroke="#78a371" stroke-width="1.5" d="M39.148+64.8L247.901+64.8C250.11+64.8+251.901+66.6103+251.901+68.8433L251.901+72.1231C251.901+74.3562+250.11+76.1664+247.901+76.1664L39.148+76.1664C36.9389+76.1664+35.148+74.3562+35.148+72.1231L35.148+68.8433C35.148+66.6103+36.9389+64.8+39.148+64.8Z" fill="none" stroke-linecap="round" opacity="1" stroke-linejoin="round"/>
<path stroke="#78a371" stroke-width="1.5" d="M39.148+121.625L247.901+121.625C250.11+121.625+251.901+123.435+251.901+125.668L251.901+128.948C251.901+131.181+250.11+132.991+247.901+132.991L39.148+132.991C36.9389+132.991+35.148+131.181+35.148+128.948L35.148+125.668C35.148+123.435+36.9389+121.625+39.148+121.625Z" fill="none" stroke-linecap="round" opacity="1" stroke-linejoin="round"/>
<path stroke="#78a371" stroke-width="1.5" d="M39.148+154.64L247.901+154.64C250.11+154.64+251.901+156.451+251.901+158.684L251.901+161.964C251.901+164.197+250.11+166.007+247.901+166.007L39.148+166.007C36.9389+166.007+35.148+164.197+35.148+161.964L35.148+158.684C35.148+156.451+36.9389+154.64+39.148+154.64Z" fill="none" stroke-linecap="round" opacity="1" stroke-linejoin="round"/>
<path stroke="#78a371" stroke-width="1.5" d="M39.6434+138.459L248.397+138.459C250.606+138.459+252.397+140.269+252.397+142.502L252.397+145.782C252.397+148.015+250.606+149.825+248.397+149.825L39.6434+149.825C37.4342+149.825+35.6434+148.015+35.6434+145.782L35.6434+142.502C35.6434+140.269+37.4342+138.459+39.6434+138.459Z" fill="none" stroke-linecap="round" opacity="1" stroke-linejoin="round"/>
<path stroke="#78a371" stroke-width="1.5" d="M39.148+184.323L247.901+184.323C250.11+184.323+251.901+186.133+251.901+188.366L251.901+191.646C251.901+193.879+250.11+195.689+247.901+195.689L39.148+195.689C36.9389+195.689+35.148+193.879+35.148+191.646L35.148+188.366C35.148+186.133+36.9389+184.323+39.148+184.323Z" fill="none" stroke-linecap="round" opacity="1" stroke-linejoin="round"/>
<path stroke="#78a371" stroke-width="1.5" d="M39.148+200.037L247.901+200.037C250.11+200.037+251.901+201.847+251.901+204.08L251.901+207.36C251.901+209.593+250.11+211.403+247.901+211.403L39.148+211.403C36.9389+211.403+35.148+209.593+35.148+207.36L35.148+204.08C35.148+201.847+36.9389+200.037+39.148+200.037Z" fill="none" stroke-linecap="round" opacity="1" stroke-linejoin="round"/>
<path stroke="#78a371" stroke-width="1.5" d="M39.148+215.434L247.901+215.434C250.11+215.434+251.901+217.244+251.901+219.477L251.901+222.757C251.901+224.99+250.11+226.8+247.901+226.8L39.148+226.8C36.9389+226.8+35.148+224.99+35.148+222.757L35.148+219.477C35.148+217.244+36.9389+215.434+39.148+215.434Z" fill="none" stroke-linecap="round" opacity="1" stroke-linejoin="round"/>
<path stroke="#78a371" stroke-width="1.5" d="M39.5295+81.784L247.52+81.784C249.721+81.784+251.505+87.2364+251.505+93.9622L251.505+103.841C251.505+110.567+249.721+116.019+247.52+116.019L39.5295+116.019C37.3284+116.019+35.5441+110.567+35.5441+103.841L35.5441+93.9622C35.5441+87.2364+37.3284+81.784+39.5295+81.784Z" fill="none" stroke-linecap="round" opacity="1" stroke-linejoin="round"/>
</g>
</svg>
