<?xml version="1.0" standalone="no"?>
<!DOCTYPE svg PUBLIC "-//W3C//DTD SVG 20010904//EN"
 "http://www.w3.org/TR/2001/REC-SVG-20010904/DTD/svg10.dtd">
<svg version="1.0" xmlns="http://www.w3.org/2000/svg"
 width="119.000000pt" height="119.000000pt" viewBox="0 0 119.000000 119.000000"
 preserveAspectRatio="xMidYMid meet">
<metadata>
Created by potrace 1.11, written by Peter Selinger 2001-2013
</metadata>
<g transform="translate(0.000000,119.000000) scale(0.100000,-0.100000)"
fill="#000000" stroke="none">
<path d="M520 1129 c-131 -16 -226 -53 -287 -111 -78 -76 -97 -214 -36 -269
45 -40 169 -63 191 -36 6 7 20 38 32 69 27 72 64 98 139 98 29 0 61 -5 73 -11
29 -16 48 -70 48 -139 0 -50 -3 -60 -17 -61 -24 -1 -58 -6 -178 -25 -210 -34
-331 -101 -393 -219 -22 -43 -26 -62 -26 -135 0 -95 14 -132 70 -187 45 -43
98 -56 224 -51 121 4 160 21 240 102 24 25 47 46 51 46 3 0 14 -20 23 -45 31
-81 112 -123 210 -110 113 15 177 84 191 204 l6 48 -41 12 c-59 18 -72 43 -69
143 1 46 7 131 14 189 22 216 -2 333 -87 404 -78 66 -235 101 -378 84z m130
-641 c0 -27 -41 -114 -68 -145 -42 -48 -136 -59 -172 -20 -30 31 -22 87 16
121 39 34 121 61 197 65 22 1 27 -3 27 -21z"/>
</g>
</svg>
